<?xml version="1.0" encoding="UTF-8"?>
<svg id="b" data-name="Layer 2" xmlns="http://www.w3.org/2000/svg" viewBox="0 0 133.16 43.48">
  <defs>
    <style>
      .d {
        fill: #231f20;
      }
    </style>
  </defs>
  <g id="c" data-name="Layer 1">
    <g>
      <path class="d" d="M94.94,0c-11.92,0-18.81,5.57-22.51,8.57-.52.42-1.08.89-.74,1.28-.62-.37-1.13-.85-1.66-1.28-3.7-3-10.59-8.57-22.51-8.57s-18.82,5.57-22.52,8.56c-.53.44-1.07.9-.81,1.28-.62-.36-1.13-.84-1.67-1.28C18.82,5.57,11.93,0,0,0v33.92c.44.31.83.66,1.24,1,3.7,2.99,10.59,8.56,22.52,8.56s18.82-5.57,22.52-8.56c.54-.44,1.03-.89.78-1.29.62.36,1.12.85,1.66,1.28,3.7,3,10.59,8.57,22.52,8.57s18.82-5.58,22.52-8.57c.55-.44,1.04-.93.73-1.28.62.36,1.12.85,1.65,1.28,3.71,3,10.59,8.57,22.52,8.57V9.55c-.42-.31-.8-.66-1.2-.98-3.71-3-10.59-8.57-22.52-8.57h0Z"/>
      <path class="d" d="M129.87,39.05c.33-.3.49-.71.49-1.23s-.16-.9-.49-1.17c-.33-.27-.79-.4-1.4-.4h-1.96v4.51h1.15v-1.26h.85l.67,1.27h1.32l-.98-1.51c.12-.06.25-.11.35-.2h0ZM127.67,37.13h.81c.25,0,.45.06.58.19.13.13.2.31.2.53s-.07.42-.2.55c-.13.13-.33.2-.58.2h-.81v-1.47Z"/>
      <path class="d" d="M132.78,36.78c-.25-.58-.59-1.09-1.02-1.53s-.94-.79-1.52-1.04-1.21-.38-1.88-.38-1.31.13-1.89.38c-.58.26-1.09.61-1.52,1.05s-.78.96-1.02,1.55c-.25.59-.37,1.21-.37,1.86s.12,1.27.36,1.85c.24.58.58,1.09,1.01,1.54.43.44.94.79,1.53,1.04.58.25,1.21.38,1.88.38s1.31-.13,1.89-.38c.58-.26,1.09-.6,1.53-1.05.44-.44.78-.96,1.03-1.55.24-.59.37-1.21.37-1.86s-.12-1.28-.37-1.87h-.01ZM131.72,40.06c-.18.44-.44.83-.78,1.17-.34.34-.73.6-1.17.79s-.93.29-1.45.29-.99-.09-1.43-.28-.83-.45-1.16-.79c-.33-.34-.58-.72-.77-1.16s-.27-.91-.27-1.41.09-.97.28-1.42c.18-.44.44-.83.77-1.17.33-.34.71-.6,1.16-.79.44-.19.93-.29,1.45-.29s.99.09,1.43.28.83.45,1.16.79c.33.34.59.72.77,1.16s.28.91.28,1.41-.09.97-.28,1.42h.01Z"/>
    </g>
  </g>
</svg>